
<svg version="1.0" xmlns="http://www.w3.org/2000/svg"
 width="42.000000pt" height="42.000000pt" viewBox="0 0 42.000000 42.000000"
 preserveAspectRatio="xMidYMid meet">

<g transform="translate(0.000000,42.000000) scale(0.100000,-0.100000)"
fill="#000000" stroke="none">
<path d="M38 409 c-16 -9 -18 -28 -18 -167 0 -110 4 -162 12 -170 7 -7 40 -12
77 -12 56 0 69 -4 91 -25 76 -73 200 -17 200 89 0 38 -45 100 -81 111 -15 5
-19 16 -19 48 0 36 -7 49 -46 90 l-46 47 -76 0 c-43 0 -85 -5 -94 -11z m162
-42 c0 -42 15 -57 57 -57 31 0 33 -2 33 -35 0 -30 -3 -35 -23 -35 -13 0 -32
-7 -43 -15 -12 -9 -43 -14 -82 -15 -40 0 -61 -4 -57 -10 3 -6 26 -10 51 -10
28 0 43 -4 39 -10 -3 -6 -24 -10 -45 -10 -21 0 -42 -4 -45 -10 -4 -6 10 -10
33 -10 38 0 40 -2 44 -35 l4 -35 -63 0 -63 0 0 153 c0 85 3 157 7 160 3 4 39
7 80 7 l73 0 0 -33z m50 -12 l23 -25 -26 0 c-22 0 -27 5 -27 25 0 14 1 25 3
25 2 0 14 -11 27 -25z m101 -164 c41 -41 41 -101 0 -142 -65 -64 -171 -20
-171 71 0 91 106 135 171 71z"/>
<path d="M108 243 c18 -2 45 -2 60 0 15 2 0 4 -33 4 -33 0 -45 -2 -27 -4z"/>
<path d="M270 145 c0 -8 -7 -15 -15 -15 -8 0 -15 -4 -15 -10 0 -5 7 -10 15
-10 8 0 15 -7 15 -15 0 -8 5 -15 10 -15 6 0 10 7 10 15 0 8 7 15 15 15 8 0 15
5 15 10 0 6 -7 10 -15 10 -8 0 -15 7 -15 15 0 8 -4 15 -10 15 -5 0 -10 -7 -10
-15z"/>
</g>
</svg>
